# xmcd CD database file
#
# Track frame offsets:
#	151
#	19388
#	39223
#	51016
#	69549
#	82618
#	100933
#	120988
#	135879
#	170356
#	187125
#	206974
#	224501
#	251860
#
# Disc length: 3515 seconds
#
# Revision: 2
# Processed by: cddbd v1.5.2PL0 Copyright (c) Steve Scherf et al.
# Submitted via: Feurio! 1.68 - http://www.feurio.com
#
DISCID=c10db90e
DTITLE=Sona Eact - Chrome Injected Car Crash Rhythm Boxx
DYEAR=2003
DGENRE=Industrial
TTITLE0=Chrome Injected Car Crash Rhythm Boxx (instr.)
TTITLE1=The Night We Killed The Computer
TTITLE2=The Rototronic Approuch Of Vertical Matters
TTITLE3=Psychological Isn't The Right Word
TTITLE4=Clip Your LEDs and Lose Your Heads
TTITLE5=We Bought Ourselves A Piece
TTITLE6=Tha Preset Killerz
TTITLE7=Chrome Injected Car Crash Rhythm Boxx (origin.)
TTITLE8=Dressed Up For A Mixing - Nightvision 3 AM
TTITLE9=React, Restart And Push The Button Again
TTITLE10=Your Toy Machinez
TTITLE11=What's My Motherfucking Name
TTITLE12=Disconnect The Machine
TTITLE13=Dumping The Machine (No More Pressure)
EXTD=http://www.sountox.com
EXTT0=
EXTT1=
EXTT2=
EXTT3=
EXTT4=
EXTT5=
EXTT6=
EXTT7=
EXTT8=
EXTT9=
EXTT10=
EXTT11=
EXTT12=
EXTT13=
PLAYORDER=
